<svg width="83" height="31" viewBox="0 0 83 31" fill="none" xmlns="http://www.w3.org/2000/svg">
<path fill-rule="evenodd" clip-rule="evenodd" d="M81.4707 8.23574C72.0717 -2.54545 63.7785 0.218961 52.7209 7.40642C43.0454 13.7646 35.858 9.34151 28.6705 12.3824C27.0119 13.2117 24.5239 15.1468 26.7354 17.0819C27.8412 17.9112 32.2642 18.7405 33.6464 18.4641C41.1103 16.8054 43.3219 20.1227 54.6559 17.9112C51.3387 20.3991 40.5575 18.7405 33.9229 19.5698C28.6705 20.6756 20.1008 16.529 27.0119 11.8295C23.971 10.4473 21.2066 9.61795 17.8893 9.34151C14.572 6.85354 9.31965 3.81269 6.55525 2.70693C4.34372 1.32472 -1.1851 1.87761 2.40863 5.47134C6.00236 8.78863 15.6778 16.2525 17.6129 17.3583C25.3532 22.0578 32.5407 25.3751 40.0046 29.5217C40.0046 29.5217 42.4926 30.9039 47.4685 28.9688C51.0622 27.3102 67.0958 18.4641 70.966 19.8463C73.1775 20.6756 74.2832 21.2285 74.2832 21.2285L81.4707 8.23574Z" stroke="#333B41" stroke-width="1.5"/>
</svg>
