<svg width="16" height="16" viewBox="0 0 16 16" fill="none" xmlns="http://www.w3.org/2000/svg">
<path d="M5.3596 2.36432C3.88338 1.84918 2.59748 1.40047 1.15879 1.13758C1.20808 1.37881 1.25653 1.61742 1.30445 1.85344C1.43496 2.49623 1.56156 3.11979 1.69072 3.72456C1.65487 3.27706 1.64725 2.83816 1.66966 2.41234L1.71944 1.46658L2.62862 1.73176C5.96111 2.70374 8.65383 3.69035 10.6309 4.80469C12.3949 5.79894 13.6825 6.94735 14.2883 8.36654C13.4485 6.10587 11.2374 4.16863 6.90649 2.89484L6.89365 2.89107L6.88095 2.88683C6.34547 2.70834 5.84236 2.53278 5.3596 2.36432ZM4.68475 11.3306C4.10009 10.544 3.58498 9.69205 3.15311 8.80902C3.7589 10.2532 4.55813 11.5474 5.71336 12.7026L5.72318 12.7124L5.73263 12.7226C6.36899 13.4079 7.00803 13.8995 7.62513 14.2466C6.50461 13.4579 5.5136 12.4458 4.68475 11.3306ZM14.4641 11.5153C14.8985 10.6464 14.911 9.81277 14.5015 8.94587C14.7846 9.7323 14.7967 10.5125 14.5112 11.1786C14.205 11.893 13.5926 12.3874 12.8288 12.5784L12.617 12.6313L12.4098 12.5623C12.3252 12.5341 12.2444 12.4969 12.1683 12.4549C12.3424 12.6533 12.5256 12.8554 12.7217 13.0632L12.7415 13.0582C13.7005 12.8185 14.2238 12.4027 14.4073 11.6688L14.4273 11.589L14.4641 11.5153Z" stroke="#333B41" stroke-width="1.5"/>
</svg>
