<svg width="300" height="43" viewBox="0 0 300 43" fill="none" xmlns="http://www.w3.org/2000/svg">
<rect y="26.5" width="300" height="13.5" rx="1" fill="#404950"/>
<rect x="20.5002" y="32.5" width="262" height="1" fill="#72828E"/>
<circle cx="20" cy="33" r="2.5" fill="#FFEE2E"/>
<circle cx="85" cy="32.5" r="2.5" fill="#FFEE2E"/>
<circle cx="150" cy="33" r="2.5" fill="#FFEE2E"/>
<circle cx="215" cy="33" r="2.5" fill="#FFEE2E"/>
<circle cx="280" cy="33" r="2.5" fill="#FFEE2E"/>
<path fill-rule="evenodd" clip-rule="evenodd" d="M155.738 33.0002C155.738 36.1721 153.172 38.7387 150 38.7387C146.828 38.7387 144.261 36.1721 144.261 33.0002C144.261 29.8283 146.828 27.2617 150 27.2617C153.172 27.2617 155.738 29.8283 155.738 33.0002ZM150 28.1576C152.688 28.1576 154.867 30.3126 154.867 33.0002C154.867 35.6879 152.688 37.867 150 37.867C147.312 37.867 145.157 35.6879 145.157 33.0002C145.157 30.3126 147.312 28.1576 150 28.1576Z" fill="#FE9013"/>
<path fill-rule="evenodd" clip-rule="evenodd" d="M150 23C155.52 23 160 27.4794 160 33C160 38.5206 155.52 43 150 43C144.479 43 140 38.5206 140 33C140 27.4794 144.479 23 150 23ZM150 23.8959C155.036 23.8959 159.128 27.9637 159.128 33C159.128 38.0363 155.036 42.1283 150 42.1283C144.963 42.1283 140.896 38.0363 140.896 33C140.896 27.9637 144.963 23.8959 150 23.8959Z" fill="#FE9013"/>
<path d="M7.60156 9.03125H2.83594L1.76562 12H0.21875L4.5625 0.625H5.875L10.2266 12H8.6875L7.60156 9.03125ZM3.28906 7.79688H7.15625L5.21875 2.47656L3.28906 7.79688ZM12.8906 3.54688L12.9297 4.48438C13.5495 3.75521 14.3854 3.39062 15.4375 3.39062C16.6198 3.39062 17.4245 3.84375 17.8516 4.75C18.1328 4.34375 18.4974 4.01562 18.9453 3.76562C19.3984 3.51562 19.9323 3.39062 20.5469 3.39062C22.401 3.39062 23.3438 4.3724 23.375 6.33594V12H21.9297V6.42188C21.9297 5.81771 21.7917 5.36719 21.5156 5.07031C21.2396 4.76823 20.776 4.61719 20.125 4.61719C19.5885 4.61719 19.1432 4.77865 18.7891 5.10156C18.4349 5.41927 18.2292 5.84896 18.1719 6.39062V12H16.7188V6.46094C16.7188 5.23177 16.1172 4.61719 14.9141 4.61719C13.9661 4.61719 13.3177 5.02083 12.9688 5.82812V12H11.5234V3.54688H12.8906ZM25.1797 7.69531C25.1797 6.86719 25.3411 6.1224 25.6641 5.46094C25.9922 4.79948 26.4453 4.28906 27.0234 3.92969C27.6068 3.57031 28.2708 3.39062 29.0156 3.39062C30.1667 3.39062 31.0964 3.78906 31.8047 4.58594C32.5182 5.38281 32.875 6.44271 32.875 7.76562V7.86719C32.875 8.6901 32.7161 9.42969 32.3984 10.0859C32.0859 10.737 31.6354 11.2448 31.0469 11.6094C30.4635 11.974 29.7917 12.1562 29.0312 12.1562C27.8854 12.1562 26.9557 11.7578 26.2422 10.9609C25.5339 10.1641 25.1797 9.10938 25.1797 7.79688V7.69531ZM26.6328 7.86719C26.6328 8.80469 26.849 9.55729 27.2812 10.125C27.7188 10.6927 28.3021 10.9766 29.0312 10.9766C29.7656 10.9766 30.349 10.6901 30.7812 10.1172C31.2135 9.53906 31.4297 8.73177 31.4297 7.69531C31.4297 6.76823 31.2083 6.01823 30.7656 5.44531C30.3281 4.86719 29.7448 4.57812 29.0156 4.57812C28.3021 4.57812 27.7266 4.86198 27.2891 5.42969C26.8516 5.9974 26.6328 6.8099 26.6328 7.86719ZM39.9062 11.1641C39.3438 11.8255 38.5182 12.1562 37.4297 12.1562C36.5286 12.1562 35.8411 11.8958 35.3672 11.375C34.8984 10.849 34.6615 10.0729 34.6562 9.04688V3.54688H36.1016V9.00781C36.1016 10.2891 36.6224 10.9297 37.6641 10.9297C38.7682 10.9297 39.5026 10.5182 39.8672 9.69531V3.54688H41.3125V12H39.9375L39.9062 11.1641ZM44.8828 3.54688L44.9297 4.60938C45.5755 3.79688 46.4193 3.39062 47.4609 3.39062C49.2474 3.39062 50.1484 4.39844 50.1641 6.41406V12H48.7188V6.40625C48.7135 5.79688 48.5729 5.34635 48.2969 5.05469C48.026 4.76302 47.6016 4.61719 47.0234 4.61719C46.5547 4.61719 46.1432 4.74219 45.7891 4.99219C45.4349 5.24219 45.1589 5.57031 44.9609 5.97656V12H43.5156V3.54688H44.8828ZM54.3047 1.5V3.54688H55.8828V4.66406H54.3047V9.90625C54.3047 10.2448 54.375 10.5 54.5156 10.6719C54.6562 10.8385 54.8958 10.9219 55.2344 10.9219C55.401 10.9219 55.6302 10.8906 55.9219 10.8281V12C55.5417 12.1042 55.1719 12.1562 54.8125 12.1562C54.1667 12.1562 53.6797 11.9609 53.3516 11.5703C53.0234 11.1797 52.8594 10.625 52.8594 9.90625V4.66406H51.3203V3.54688H52.8594V1.5H54.3047Z" fill="black"/>
</svg>
