<svg width="810" height="40" viewBox="0 0 810 40" fill="none" xmlns="http://www.w3.org/2000/svg">
<rect y="7" width="810" height="27" rx="2" fill="#404950"/>
<rect x="16" y="19" width="785" height="2" fill="#72828E"/>
<circle cx="16" cy="20" r="5" fill="#FFEE2E"/>
<circle cx="146" cy="20" r="5" fill="#FFEE2E"/>
<circle cx="276" cy="20" r="5" fill="#FFEE2E"/>
<circle cx="406" cy="19" r="5" fill="#FFEE2E"/>
<circle cx="536" cy="21" r="5" fill="#FFEE2E"/>
<circle cx="666" cy="20" r="5" fill="#FFEE2E"/>
<circle cx="796" cy="20" r="5" fill="#FFEE2E"/>
<path fill-rule="evenodd" clip-rule="evenodd" d="M157.477 19.9999C157.477 26.3438 152.344 31.4769 146 31.4769C139.657 31.4769 134.523 26.3438 134.523 19.9999C134.523 13.6561 139.657 8.52295 146 8.52295C152.344 8.52295 157.477 13.6561 157.477 19.9999ZM146 10.3147C151.376 10.3147 155.734 14.6246 155.734 19.9999C155.734 25.3752 151.376 29.7336 146 29.7336C140.625 29.7336 136.315 25.3752 136.315 19.9999C136.315 14.6246 140.625 10.3147 146 10.3147Z" fill="#FE9013"/>
<path fill-rule="evenodd" clip-rule="evenodd" d="M146 0C157.041 0 166 8.95884 166 20C166 31.0412 157.041 40 146 40C134.959 40 126 31.0412 126 20C126 8.95884 134.959 0 146 0ZM146 1.79177C156.073 1.79177 164.257 9.92736 164.257 20C164.257 30.0726 156.073 38.2567 146 38.2567C135.927 38.2567 127.792 30.0726 127.792 20C127.792 9.92736 135.927 1.79177 146 1.79177Z" fill="#FE9013"/>
</svg>
