<svg width="11" height="53" viewBox="0 0 11 53" fill="none" xmlns="http://www.w3.org/2000/svg">
<path fill-rule="evenodd" clip-rule="evenodd" d="M2.7528 50.406C3.30568 49.3003 3.85856 48.471 4.68789 48.1945C5.51721 47.9181 5.79365 48.471 6.34653 49.0238C6.89941 49.8532 7.17585 50.1296 8.00518 50.6825C8.28162 50.9589 8.8345 50.9589 9.11094 50.9589L8.55806 50.6825C7.72874 50.1296 7.17585 49.5767 7.4523 48.471C7.4523 48.1945 7.17585 47.6416 7.72874 47.6416C8.28162 47.9181 9.11094 48.471 9.94026 48.471C9.94026 48.471 10.7696 48.7474 10.4931 48.471C10.4931 48.1945 9.94026 47.9181 9.66382 47.6416C8.00518 46.2594 8.00518 45.983 8.00518 44.0479C8.28162 41.2835 7.17585 39.072 5.24077 37.1369C0.817716 32.7138 2.7528 26.6321 6.07009 20.8269C9.11094 15.5745 11.8753 14.7452 8.8345 8.38704C7.72874 5.62263 5.79365 2.85822 5.51721 1.19958C5.51721 0.646696 5.51721 0.923137 5.51721 1.19958C5.24077 2.85822 6.34653 5.34619 7.4523 7.83416C9.94026 13.363 9.38738 13.9159 5.79365 18.8918C1.92348 23.8677 -0.840929 29.1201 0.817716 34.6489C1.92348 38.5191 7.4523 42.3893 4.68789 44.8772C3.30568 45.983 1.3706 48.7474 1.09416 50.406C0.817716 51.2354 0.817716 51.2354 0.541275 51.7882C0.264834 52.0647 0.541275 52.0647 0.817716 52.0647C2.19992 51.7882 2.19992 51.2354 2.7528 50.406Z" fill="#333B41"/>
</svg>
